<svg preserveAspectRatio="xMidYMid meet" data-bbox="44.682 15.976 110.636 171.155" xmlns="http://www.w3.org/2000/svg" width="200" height="200" viewBox="44.682 15.976 110.636 171.155" data-type="color" role="presentation" aria-hidden="true"><defs><style>#comp-jy5r38qk svg [data-color="1"] {fill: #253C57;}</style></defs>
    <g>
        <path fill="#253C57" d="M141.573 15.976H58.427c-7.579 0-13.745 6.167-13.745 13.746v114.187c0 7.579 6.166 13.745 13.745 13.745h18.586v29.477l22.783-17.42 22.783 17.42v-29.477h18.994c7.579 0 13.745-6.166 13.745-13.745V29.722c0-7.58-6.166-13.746-13.745-13.746zM80.411 117.35c-.073-.873-.194-2.334.014-2.693.275-.325 1.784-.678 2.595-.867 1.532-.358 3.269-.764 4.709-1.812 1.427-1.038 2.34-2.555 3.145-3.893.438-.728 1.254-2.083 1.632-2.22a.465.465 0 0 1 .087-.007c.489 0 1.695.506 2.435.816 1.474.618 3.145 1.319 4.974 1.319s3.5-.701 4.974-1.319c.787-.33 2.112-.896 2.504-.814.396.142 1.212 1.497 1.649 2.225.806 1.338 1.719 2.854 3.144 3.892 1.441 1.05 3.179 1.456 4.712 1.814.81.189 2.317.542 2.587.857.214.368.093 1.829.02 2.703-.131 1.574-.279 3.358.275 5.067.538 1.655 1.688 2.978 2.701 4.144.568.654 1.626 1.871 1.626 2.312s-1.059 1.658-1.627 2.312c-1.014 1.166-2.162 2.488-2.7 4.145-.555 1.708-.406 3.492-.275 5.066.073.874.194 2.335-.013 2.693-.276.325-1.784.678-2.595.867-1.532.358-3.269.764-4.71 1.812-1.427 1.038-2.34 2.555-3.145 3.893-.438.728-1.253 2.082-1.633 2.221-.431.062-1.733-.479-2.521-.81-1.474-.618-3.144-1.319-4.973-1.319-1.828 0-3.499.701-4.973 1.319-.788.331-2.121.903-2.505.813-.396-.142-1.212-1.497-1.649-2.225-.806-1.338-1.719-2.854-3.145-3.893-1.441-1.049-3.177-1.454-4.709-1.812-.811-.189-2.319-.542-2.589-.858-.214-.368-.093-1.829-.02-2.703.131-1.574.279-3.358-.275-5.067-.538-1.655-1.687-2.977-2.7-4.143-.568-.654-1.627-1.872-1.627-2.312s1.059-1.658 1.627-2.312c1.014-1.166 2.162-2.488 2.7-4.145.553-1.708.405-3.492.274-5.066zm36.098 57.499L99.796 162.07l-16.713 12.779v-24.616c.457.134.848.281 1.074.445.432.314 1.032 1.312 1.515 2.114 1.084 1.801 2.434 4.042 4.975 4.868 2.462.802 4.828-.191 6.729-.989.945-.397 2.018-.847 2.625-.847s1.679.449 2.625.847c1.404.589 3.062 1.284 4.826 1.284.623 0 1.259-.086 1.9-.295 2.543-.825 3.893-3.067 4.977-4.868.482-.803 1.083-1.801 1.514-2.114.154-.112.39-.216.667-.314v24.485zm32.739-30.941c0 4.232-3.442 7.675-7.675 7.675h-18.994v-3.209c.708-.428 1.366-.972 1.902-1.709 1.543-2.12 1.329-4.698 1.156-6.771-.083-1.004-.178-2.143 0-2.689.156-.48.906-1.344 1.509-2.037 1.388-1.597 3.115-3.585 3.115-6.294 0-2.71-1.728-4.697-3.115-6.294-.603-.692-1.353-1.556-1.509-2.035-.178-.548-.083-1.687 0-2.69.173-2.072.387-4.65-1.156-6.771-1.555-2.136-4.085-2.728-6.117-3.202-.972-.228-2.072-.484-2.521-.812-.432-.314-1.032-1.312-1.515-2.114-1.084-1.801-2.434-4.042-4.976-4.868-2.457-.798-4.826.193-6.727.99-.946.397-2.019.847-2.626.847s-1.68-.449-2.625-.847c-1.9-.798-4.266-1.788-6.728-.99-2.542.826-3.891 3.067-4.975 4.868-.483.803-1.084 1.8-1.515 2.114-.448.326-1.549.583-2.52.811-2.034.475-4.565 1.066-6.12 3.203-1.543 2.12-1.329 4.699-1.156 6.771.083 1.004.178 2.143 0 2.689-.156.48-.906 1.344-1.509 2.037-1.388 1.597-3.115 3.585-3.115 6.294 0 2.71 1.728 4.697 3.116 6.295.603.692 1.352 1.555 1.508 2.034.178.548.083 1.687 0 2.69-.173 2.072-.387 4.65 1.156 6.771a6.241 6.241 0 0 0 1.494 1.445v3.475H58.427c-4.232 0-7.675-3.442-7.675-7.675V29.722c0-4.232 3.442-7.676 7.675-7.676h83.146c4.232 0 7.675 3.443 7.675 7.676v114.186z" data-color="1"></path>
        <path d="M127.155 41.902v2.207H72.846v-2.207h54.309z" fill="#253C57" data-color="1"></path>
        <path d="M127.155 59.654v2.207H72.846v-2.207h54.309z" fill="#253C57" data-color="1"></path>
        <path d="M127.155 77.405v2.207H72.846v-2.207h54.309z" fill="#253C57" data-color="1"></path>
        <path fill="#253C57" d="M96.572 138.554l.435-.001.316-.284c.08-.07 2.078-1.877 14.051-13.85l-1.561-1.561c-8.452 8.452-11.909 11.813-13.242 13.088l-1.055-1.075c-1.013-1.034-2.496-2.551-4.591-4.645l-1.561 1.561c2.087 2.087 3.565 3.598 4.573 4.628 2.091 2.136 2.091 2.136 2.635 2.139z" data-color="1"></path>
    </g>
</svg>