<svg preserveAspectRatio="xMidYMid meet" data-bbox="29.343 36.603 141.314 126.796" xmlns="http://www.w3.org/2000/svg" width="200" height="200" viewBox="29.343 36.603 141.314 126.796" data-type="color" role="presentation" aria-hidden="true"><defs><style>#comp-jy5qxkl5 svg [data-color="1"] {fill: #253C57;}</style></defs>
    <g>
        <path fill="#253C57" d="M164.633 44.383a23.521 23.521 0 0 0-17.463-7.78H52.829a23.525 23.525 0 0 0-17.463 7.78 23.525 23.525 0 0 0-5.899 18.136l5.781 79.771.009.101a23.44 23.44 0 0 0 23.356 21.008h82.773a23.44 23.44 0 0 0 23.356-21.008l5.79-79.871a23.516 23.516 0 0 0-5.899-18.137zm-.099 17.551l-5.79 79.867a17.425 17.425 0 0 1-17.357 15.569H58.613a17.425 17.425 0 0 1-17.357-15.568l-5.781-79.768-.009-.101c-.522-4.916 1.075-9.844 4.381-13.52s8.038-5.784 12.981-5.784h94.342c4.943 0 9.675 2.108 12.981 5.783a17.49 17.49 0 0 1 4.383 13.522z" data-color="1"></path>
        <path fill="#253C57" d="M99.961 52.147c-22.951 0-41.624 18.673-41.624 41.624 0 .902.365 3.003 3.745 3.023l2.139.009c1.84.005 4.479.009 7.675.013a35623.644 35623.644 0 0 0 53.021-.002c4.059-.003 7.475-.008 9.875-.013l2.8-.008c2.649-.012 3.993-1.028 3.993-3.022 0-22.951-18.673-41.624-41.624-41.624zm1.095 38.648V73.518h-2.191v17.278c-14.284 0-28.363-.006-34.375-.02a35.318 35.318 0 0 1 2.126-9.45l8.681 3.901.525-1.169-8.732-3.924a35.567 35.567 0 0 1 4.621-7.987l7.554 6.504.837-.972-7.596-6.54a35.882 35.882 0 0 1 6.839-6.364l5.599 8.689 1.078-.694-5.617-8.718a35.49 35.49 0 0 1 8.505-4.111l2.948 10.169 1.232-.357-2.954-10.193a35.514 35.514 0 0 1 9.455-1.375l-.173 10.683 1.282.021.174-10.691a35.42 35.42 0 0 1 9.31 1.478l-3.093 10.167 1.227.373 3.088-10.149a35.453 35.453 0 0 1 8.451 4.212l-5.745 8.671 1.069.708 5.724-8.641a35.889 35.889 0 0 1 6.769 6.45l-7.705 6.466.824.982 7.673-6.438a35.606 35.606 0 0 1 4.532 8.064l-8.83 3.831.51 1.176 8.776-3.807a35.303 35.303 0 0 1 1.978 9.034c-6.038.012-20.109.019-34.376.02z" data-color="1"></path>
    </g>
</svg>