<svg preserveAspectRatio="xMidYMid meet" data-bbox="17.472 17.475 165.057 165.051" xmlns="http://www.w3.org/2000/svg" width="200" height="200" viewBox="17.472 17.475 165.057 165.051" data-type="color" role="presentation" aria-hidden="true"><defs><style>#comp-jy5r0064 svg [data-color="1"] {fill: #253C57;}</style></defs>
    <g>
        <path fill="#253C57" d="M177.947 42.083l-20.025-20.026c-2.955-2.955-6.884-4.582-11.062-4.582s-8.107 1.627-11.062 4.582l-14.045 14.045a15.54 15.54 0 0 0-4.582 11.062c0 3.297 1.027 6.431 2.907 9.062-5.855 3.782-18.36 12.565-33.538 27.32-.079.066-.165.121-.239.195-.427.427-.841.849-1.259 1.272-.438.432-.874.861-1.316 1.302-.076.076-.131.162-.198.243-14.745 15.169-23.525 27.666-27.31 33.525-6.106-4.345-14.647-3.797-20.119 1.673l-14.045 14.046c-2.955 2.954-4.582 6.883-4.582 11.062s1.627 8.107 4.582 11.062l20.026 20.026a15.599 15.599 0 0 0 11.062 4.574c4.006 0 8.012-1.525 11.062-4.574l14.045-14.046a15.539 15.539 0 0 0 4.582-11.062 15.53 15.53 0 0 0-2.85-9.007c5.86-3.787 18.357-12.566 33.523-27.309.079-.066.165-.121.239-.195.435-.435.856-.864 1.281-1.294.431-.425.86-.846 1.294-1.281.075-.075.13-.161.196-.24 14.766-15.189 23.55-27.702 27.327-33.55a15.613 15.613 0 0 0 8.999 2.86c4.007 0 8.013-1.525 11.062-4.574l14.045-14.045a15.54 15.54 0 0 0 4.582-11.062c0-4.181-1.627-8.109-4.582-11.064zm-4.885 17.239l-.198.198-18.425-18.425-1.775 1.776 18.424 18.424-12.071 12.071c-3.406 3.407-8.948 3.406-12.354 0l-.324-.324-.484-.278a3.429 3.429 0 0 0-1.13-1.051 3.441 3.441 0 0 0-3.486.064 3.424 3.424 0 0 0-1.568 1.415 3.415 3.415 0 0 0-.37 1.012c-2.533 4.109-11.881 18.43-29.162 35.948-20.721 20.44-36.975 29.785-37.14 29.878a3.453 3.453 0 0 0-1.301 4.706c.212.375.488.689.801.949l.015.128.852.853a8.68 8.68 0 0 1 2.559 6.177 8.678 8.678 0 0 1-2.559 6.177l-11.041 11.042-18.424-18.424-1.776 1.775 18.425 18.425-1.228 1.228c-3.407 3.406-8.95 3.406-12.355 0L26.938 153.04c-1.65-1.649-2.559-3.844-2.559-6.177s.909-4.527 2.559-6.177l1.229-1.229 6.06 6.06 1.776-1.775-6.06-6.06 11.041-11.041c3.405-3.406 8.948-3.407 12.354 0 .239.239.511.421.794.575.293.456.683.857 1.187 1.143a3.453 3.453 0 0 0 4.708-1.299c.094-.165 9.446-16.431 29.902-37.163 20.71-20.424 36.952-29.761 37.116-29.855a3.454 3.454 0 0 0 1.301-4.707 3.424 3.424 0 0 0-1.119-1.173 3.396 3.396 0 0 0-.589-.821c-1.65-1.65-2.559-3.844-2.559-6.177s.908-4.527 2.559-6.177l12.071-12.071 6.06 6.06 1.775-1.776-6.06-6.06.198-.198a8.678 8.678 0 0 1 6.177-2.559c2.334 0 4.527.909 6.178 2.559l20.025 20.026a8.68 8.68 0 0 1 2.559 6.177 8.683 8.683 0 0 1-2.559 6.177z" data-color="1"></path>
        <path fill="#253C57" d="M112.557 76.7c-5.943 4.802-11.858 10.066-17.62 15.677l-.018-.018c-.327.327-.644.661-.97.99-.535.527-1.072 1.052-1.604 1.584l.027.027a261.244 261.244 0 0 0-12.485 13.734l1.92 1.619c4.198-4.977 8.735-9.924 13.482-14.742 6.149-6.076 12.479-11.773 18.846-16.918l-1.578-1.953z" data-color="1"></path>
    </g>
</svg>