<svg preserveAspectRatio="xMidYMid meet" data-bbox="21.843 32.157 156.313 135.686" xmlns="http://www.w3.org/2000/svg" width="200" height="200" viewBox="21.843 32.157 156.313 135.686" data-type="color" role="presentation" aria-hidden="true"><defs><style>#comp-jy5qycnq svg [data-color="1"] {fill: #253C57;}</style></defs>
    <g>
        <path fill="#253C57" d="M137.337 99.445c-14.252 0-26.578 4.431-33.854 11.295v-5.713c0-14.588-17.93-26.015-40.82-26.015s-40.82 11.427-40.82 26.015v39.729l10.668 1.106a291.66 291.66 0 0 0 30.049 1.549c9.792 0 19.589-.491 29.315-1.474l4.641-.469v19.719l10.613 1.102a291.794 291.794 0 0 0 30.097 1.554c9.778 0 19.559-.49 29.269-1.47l11.661-1.177v-39.737c.001-14.587-17.929-26.014-40.819-26.014zm-40.856 38.989l-5.309.536c-2.3.232-4.605.433-6.912.609v-25.966h-2.546v26.133a285.175 285.175 0 0 1-38.104.011v-26.144h-2.546v25.978a284.205 284.205 0 0 1-7.832-.695l-4.388-.454v-33.416c0-10.306 15.486-19.013 33.818-19.013S96.48 94.72 96.48 105.026v33.408zm74.674 20.432l-5.361.54c-2.283.231-4.57.429-6.859.604v-26.207h-2.546v26.375a285.343 285.343 0 0 1-38.104.012v-26.387h-2.546v26.221a280.505 280.505 0 0 1-7.887-.7l-4.333-.449v-33.416c0-10.306 15.486-19.012 33.818-19.012s33.818 8.706 33.818 19.012v33.407z" data-color="1"></path>
        <path fill="#253C57" d="M137.337 94.011c11.447 0 20.76-9.312 20.76-20.76s-9.313-20.76-20.76-20.76-20.76 9.312-20.76 20.76 9.313 20.76 20.76 20.76zm0-34.517c7.586 0 13.758 6.172 13.758 13.758s-6.171 13.758-13.758 13.758-13.758-6.172-13.758-13.758 6.171-13.758 13.758-13.758z" data-color="1"></path>
        <path fill="#253C57" d="M62.663 73.677c11.447 0 20.76-9.312 20.76-20.76s-9.313-20.76-20.76-20.76-20.76 9.312-20.76 20.76 9.313 20.76 20.76 20.76zm0-34.517c7.586 0 13.758 6.172 13.758 13.758S70.25 66.675 62.663 66.675s-13.758-6.172-13.758-13.758S55.077 39.16 62.663 39.16z" data-color="1"></path>
    </g>
</svg>